<svg width="120" height="240" viewBox="0 0 120 240" fill="none" xmlns="http://www.w3.org/2000/svg">
<g id="a" clip-path="url(#clip0_1301_11072)">
<path id="Vector" d="M-0.722343 3.18549C3.46743 3.18549 7.82352 -0.383811 11.9045 0.0383638C16.0623 0.473332 20.508 0.537298 24.525 1.38804C28.6061 2.25158 32.9941 3.08314 36.9088 4.35606C40.8236 5.62898 43.7468 10.1578 47.508 11.8401C51.2692 13.5224 54.346 16.516 57.9217 18.5821C61.4974 20.6482 63.8449 24.2558 67.1839 26.6866C70.5358 29.13 74.2778 30.678 77.3545 33.4477C80.4313 36.2175 85.9388 36.5565 88.7085 39.6396C91.4782 42.7228 94.7533 45.6716 97.1968 49.0234C99.6275 52.3688 101.374 56.4243 103.453 60.0192C105.532 63.6141 105.711 68.226 107.406 72.0256C109.088 75.7932 109.101 80.1045 110.387 84.0639C111.672 88.0234 112.689 91.791 113.553 95.872C114.404 99.8891 119.802 103.298 120.237 107.456C120.66 111.537 117.384 115.977 117.384 120.166C117.384 124.356 116.809 128.399 116.387 132.48C115.952 136.637 118.888 141.39 118.037 145.414C117.173 149.495 110.892 152.111 109.619 156.026C108.333 159.985 110.687 165.262 109.011 169.03C107.316 172.829 103.824 175.759 101.751 179.335C99.6723 182.93 96.0006 185.335 93.5635 188.674C91.12 192.026 92.5656 198.601 89.7895 201.678C87.0134 204.755 80.4121 204.096 77.3289 206.872C74.2522 209.642 72.5955 214.049 69.2373 216.486C65.8918 218.917 63.6722 223.426 60.0773 225.505C56.4824 227.584 50.6871 225.454 46.8875 227.149C43.1199 228.832 40.363 233.188 36.3971 234.473C32.4824 235.746 28.1135 235.861 24.0325 236.725C20.0154 237.576 15.5698 235.318 11.4056 235.746C7.32458 236.168 3.44184 238.017 -0.747932 238.017C-4.93771 238.017 -9.2618 240.371 -13.3364 239.949C-17.4942 239.514 -20.8716 234.569 -24.8887 233.719C-28.9697 232.855 -33.9911 235.804 -37.9122 234.531C-41.8717 233.245 -44.539 228.659 -48.3066 226.977C-52.1062 225.281 -56.9229 225.71 -60.4922 223.644C-64.0615 221.578 -65.9293 216.915 -69.2747 214.484C-72.6265 212.04 -75.5625 209.443 -78.6393 206.667C-81.7161 203.891 -84.2875 200.949 -87.0572 197.872C-89.827 194.795 -94.6052 193.478 -97.0487 190.126C-99.4794 186.78 -99.6713 182.066 -101.757 178.471C-103.842 174.876 -105.511 171.352 -107.207 167.552C-108.889 163.785 -111.364 160.478 -112.656 156.518C-113.929 152.603 -115.17 148.746 -116.034 144.665C-116.885 140.648 -117.934 136.682 -118.369 132.524C-118.791 128.443 -120.038 124.35 -120.038 120.16C-120.038 115.97 -117.767 111.979 -117.339 107.904C-116.904 103.746 -119.744 99.0703 -118.893 95.0533C-118.03 90.9723 -112.369 88.2281 -111.102 84.307C-109.816 80.3475 -108.652 76.6439 -106.97 72.8763C-105.288 69.1087 -104.162 65.2388 -102.089 61.6631C-100.01 58.0682 -101.462 52.1066 -99.0317 48.7612C-96.5882 45.4094 -93.0125 42.6652 -90.2427 39.5885C-87.4666 36.5117 -84.505 33.339 -81.4282 30.5693C-78.3515 27.7996 -73.9442 26.4883 -70.5924 24.0448C-67.247 21.6141 -63.3962 19.9765 -59.8013 17.8976C-56.2256 15.8315 -53.3791 12.2047 -49.586 10.5096C-45.8184 8.82728 -40.6819 10.791 -36.7224 9.50531C-32.7629 8.2196 -30.0379 2.52664 -25.9569 1.6631C-21.9399 0.812351 -17.136 4.4648 -12.9782 4.02983C-8.89719 3.60766 -4.95689 3.18549 -0.76712 3.18549H-0.722343Z" fill="#E05464"/>
</g>
<defs>
<clipPath id="clip0_1301_11072">
<rect width="120" height="240" fill="white"/>
</clipPath>
</defs>
</svg>
