<svg width="120" height="240" viewBox="0 0 120 240" fill="none" xmlns="http://www.w3.org/2000/svg">
<g id="a" clip-path="url(#clip0_1301_11070)">
<path id="Vector" d="M119.278 3.18549C123.467 3.18549 127.824 -0.383811 131.905 0.0383638C136.062 0.473332 140.508 0.537298 144.525 1.38804C148.606 2.25158 152.994 3.08314 156.909 4.35606C160.824 5.62898 163.747 10.1578 167.508 11.8401C171.269 13.5224 174.346 16.516 177.922 18.5821C181.497 20.6482 183.845 24.2558 187.184 26.6866C190.536 29.13 194.278 30.678 197.355 33.4477C200.431 36.2175 205.939 36.5565 208.708 39.6396C211.478 42.7228 214.753 45.6716 217.197 49.0234C219.627 52.3688 221.374 56.4243 223.453 60.0192C225.532 63.6141 225.711 68.226 227.406 72.0256C229.088 75.7932 229.101 80.1045 230.387 84.0639C231.672 88.0234 232.689 91.791 233.553 95.872C234.404 99.8891 239.802 103.298 240.237 107.456C240.66 111.537 237.384 115.977 237.384 120.166C237.384 124.356 236.809 128.399 236.387 132.48C235.952 136.637 238.888 141.39 238.037 145.414C237.173 149.495 230.892 152.111 229.619 156.026C228.333 159.985 230.687 165.262 229.011 169.03C227.316 172.829 223.824 175.759 221.751 179.335C219.672 182.93 216.001 185.335 213.564 188.674C211.12 192.026 212.566 198.601 209.79 201.678C207.013 204.755 200.412 204.096 197.329 206.872C194.252 209.642 192.595 214.049 189.237 216.486C185.892 218.917 183.672 223.426 180.077 225.505C176.482 227.584 170.687 225.454 166.888 227.149C163.12 228.832 160.363 233.188 156.397 234.473C152.482 235.746 148.114 235.861 144.032 236.725C140.015 237.576 135.57 235.318 131.406 235.746C127.325 236.168 123.442 238.017 119.252 238.017C115.062 238.017 110.738 240.371 106.664 239.949C102.506 239.514 99.1284 234.569 95.1113 233.719C91.0303 232.855 86.0089 235.804 82.0878 234.531C78.1283 233.245 75.461 228.659 71.6934 226.977C67.8938 225.281 63.0771 225.71 59.5078 223.644C55.9385 221.578 54.0707 216.915 50.7253 214.484C47.3735 212.04 44.4375 209.443 41.3607 206.667C38.2839 203.891 35.7125 200.949 32.9428 197.872C30.173 194.795 25.3948 193.478 22.9513 190.126C20.5206 186.78 20.3287 182.066 18.2434 178.471C16.1581 174.876 14.4886 171.352 12.7935 167.552C11.1112 163.785 8.6357 160.478 7.34359 156.518C6.07067 152.603 4.82973 148.746 3.96618 144.665C3.11544 140.648 2.06639 136.682 1.63143 132.524C1.20925 128.443 -0.0380859 124.35 -0.0380859 120.16C-0.0380859 115.97 2.23271 111.979 2.66128 107.904C3.09625 103.746 0.256158 99.0703 1.10691 95.0533C1.97045 90.9723 7.63144 88.2281 8.89796 84.307C10.1837 80.3475 11.3479 76.6439 13.0302 72.8763C14.7125 69.1087 15.8383 65.2388 17.9108 61.6631C19.9897 58.0682 18.5376 52.1066 20.9683 48.7612C23.4118 45.4094 26.9875 42.6652 29.7573 39.5885C32.5334 36.5117 35.495 33.339 38.5718 30.5693C41.6485 27.7996 46.0558 26.4883 49.4076 24.0448C52.753 21.6141 56.6038 19.9765 60.1987 17.8976C63.7744 15.8315 66.6209 12.2047 70.414 10.5096C74.1816 8.82728 79.3181 10.791 83.2776 9.50531C87.2371 8.2196 89.9621 2.52664 94.0431 1.6631C98.0601 0.812351 102.864 4.4648 107.022 4.02983C111.103 3.60766 115.043 3.18549 119.233 3.18549H119.278Z" fill="#E05464"/>
</g>
<defs>
<clipPath id="clip0_1301_11070">
<rect width="120" height="240" fill="white"/>
</clipPath>
</defs>
</svg>
